:FULLY-SPECIFIED
:FORCE-ALL-JOINTS-BE-3DOF
:DEGREES
306
root 9.22193 15.3878 -23.8285 0 0 0
lfemur -15.5619 17.199 -18.302
ltibia 50.4738 -0 0
lfoot 0 0 0
ltoes 0 0 0
rfemur -52.3801 -14.2097 26.9432
rtibia 57.0071 -0 0
rfoot 3.04542 -1.79731 0.346266
rtoes 0 0 0
lowerback 8.6951 -2.86897 -6.83315
upperback 4.62591 -4.1996 -4.08373
thorax 0 0 0
lowerneck -3.99377 -11.553 -2.14103
upperneck -2.22267 -15.3024 9.71008
head 0 0 0
lclavicle 0 0 0
lhumerus -44.8139 -46.7441 103.84
lradius 59.6247 -0 0
lwrist 18.9971 0 0
lhand 17.2605 12.2928 0.0704684
lfingers 0 0 0
lthumb 0 0 0
rclavicle 0 0 0
rhumerus 0 0 0
rradius 73.2938 -0 0
rwrist 0 0 0
rhand 0 0 0
rfingers 0 0 0
rthumb 0 0 0
307
root 9.16668 15.4147 -23.8109 0 0 0
lfemur -15.6628 17.8313 -18.082
ltibia 49.9596 -0 0
lfoot 0 0 0
ltoes 0 0 0
rfemur -53.7667 -15.1939 27.2101
rtibia 57.6363 -0 0
rfoot 3.42116 -0.00648432 0.322866
rtoes 0 0 0
lowerback 8.88362 -2.65425 -6.7394
upperback 4.64709 -3.92666 -4.09318
thorax 0 0 0
lowerneck -4.12863 -11.4795 -1.67361
upperneck -2.80928 -15.1764 9.82215
head 0 0 0
lclavicle 0 0 0
lhumerus -45.3224 -47.5033 104.234
lradius 59.5158 -0 0
lwrist 18.9282 0 0
lhand 16.8943 11.9199 0.0657268
lfingers 0 0 0
lthumb 0 0 0
rclavicle 0 0 0
rhumerus 0 0 0
rradius 72.974 -0 0
rwrist 0 0 0
rhand 0 0 0
rfingers 0 0 0
rthumb 0 0 0
308
root 9.11093 15.4424 -23.7905 0 0 0
lfemur -15.7574 18.4384 -17.8714
ltibia 49.4663 -0 0
lfoot 0 0 0
ltoes 0 0 0
rfemur -55.1077 -16.132 27.4906
rtibia 58.24 -0 0
rfoot 3.78078 1.71143 0.289391
rtoes 0 0 0
lowerback 9.06479 -2.44854 -6.64881
upperback 4.66737 -3.6648 -4.10214
thorax 0 0 0
lowerneck -4.2574 -11.408 -1.22545
upperneck -3.3715 -15.0544 9.92835
head 0 0 0
lclavicle 0 0 0
lhumerus -45.8247 -48.2293 104.627
lradius 59.4114 -0 0
lwrist 18.8621 0 0
lhand 16.5431 11.5623 0.0589385
lfingers 0 0 0
lthumb 0 0 0
rclavicle 0 0 0
rhumerus 0 0 0
rradius 72.6672 -0 0
rwrist 0 0 0
rhand 0 0 0
rfingers 0 0 0
rthumb 0 0 0
309
root 9.05545 15.4704 -23.7666 0 0 0
lfemur -15.8447 19.0103 -17.6732
ltibia 49.0016 -0 0
lfoot 0 0 0
ltoes 0 0 0
rfemur -56.3811 -17.0094 27.7769
rtibia 58.8085 -0 0
rfoot 4.11841 3.32913 0.24802
rtoes 0 0 0
lowerback 9.23569 -2.25507 -6.56291
upperback 4.68642 -3.41818 -4.1105
thorax 0 0 0
lowerneck -4.37812 -11.3397 -0.80363
upperneck -3.90048 -14.9387 10.0272
head 0 0 0
lclavicle 0 0 0
lhumerus -46.3112 -48.911 105.011
lradius 59.313 -0 0
lwrist 18.7999 0 0
lhand 16.2123 11.2255 0.0505407
lfingers 0 0 0
lthumb 0 0 0
rclavicle 0 0 0
rhumerus 0 0 0
rradius 72.3782 -0 0
rwrist 0 0 0
rhand 0 0 0
rfingers 0 0 0
rthumb 0 0 0
310
root 9.00105 15.4983 -23.7386 0 0 0
lfemur -15.9236 19.5376 -17.4909
ltibia 48.5736 -0 0
lfoot 0 0 0
ltoes 0 0 0
rfemur -57.5637 -17.8123 28.06
rtibia 59.3323 -0 0
rfoot 4.42834 4.81936 0.201481
rtoes 0 0 0
lowerback 9.39339 -2.07704 -6.48327
upperback 4.70394 -3.19095 -4.11812
thorax 0 0 0
lowerneck -4.48886 -11.276 -0.415206
upperneck -4.38743 -14.8313 10.1172
head 0 0 0
lclavicle 0 0 0
lhumerus -46.7718 -49.537 105.378
lradius 59.2223 -0 0
lwrist 18.7425 0 0
lhand 15.9076 10.9152 0.0410827
lfingers 0 0 0
lthumb 0 0 0
rclavicle 0 0 0
rhumerus 0 0 0
rradius 72.112 -0 0
rwrist 0 0 0
rhand 0 0 0
rfingers 0 0 0
rthumb 0 0 0
311
root 8.9485 15.5257 -23.7057 0 0 0
lfemur -15.993 20.0104 -17.3276
ltibia 48.1899 -0 0
lfoot 0 0 0
ltoes 0 0 0
rfemur -58.632 -18.527 28.3297
rtibia 59.8019 -0 0
rfoot 4.70503 6.15487 0.152929
rtoes 0 0 0
lowerback 9.53493 -1.91765 -6.41147
upperback 4.71961 -2.98728 -4.12489
thorax 0 0 0
lowerneck -4.58772 -11.2183 -0.0672256
upperneck -4.82355 -14.7344 10.197
head 0 0 0
lclavicle 0 0 0
lhumerus -47.1949 -50.0965 105.717
lradius 59.1411 -0 0
lwrist 18.6911 0 0
lhand 15.6345 10.6372 0.031203
lfingers 0 0 0
lthumb 0 0 0
rclavicle 0 0 0
rhumerus 0 0 0
rradius 71.8734 -0 0
rwrist 0 0 0
rhand 0 0 0
rfingers 0 0 0
rthumb 0 0 0
312
root 8.8986 15.5521 -23.6671 0 0 0
lfemur -16.0519 20.419 -17.1866
ltibia 47.8583 -0 0
lfoot 0 0 0
ltoes 0 0 0
rfemur -59.5614 -19.1405 28.5749
rtibia 60.2075 -0 0
rfoot 4.94311 7.30848 0.105801
rtoes 0 0 0
lowerback 9.65736 -1.78009 -6.34913
upperback 4.73313 -2.81131 -4.1307
thorax 0 0 0
lowerneck -4.67283 -11.1679 0.233272
upperneck -5.20006 -14.6502 10.2654
head 0 0 0
lclavicle 0 0 0
lhumerus -47.5687 -50.5786 106.019
lradius 59.0709 -0 0
lwrist 18.6466 0 0
lhand 15.3987 10.397 0.0216007
lfingers 0 0 0
lthumb 0 0 0
rclavicle 0 0 0
rhumerus 0 0 0
rradius 71.6672 -0 0
rwrist 0 0 0
rhand 0 0 0
rfingers 0 0 0
rthumb 0 0 0
313
root 8.85213 15.5772 -23.6221 0 0 0
lfemur -16.0995 20.7537 -17.0712
ltibia 47.5869 -0 0
lfoot 0 0 0
ltoes 0 0 0
rfemur -60.3271 -19.6401 28.7842
rtibia 60.5397 -0 0
rfoot 5.13733 8.25302 0.063644
rtoes 0 0 0
lowerback 9.75773 -1.66754 -6.29786
upperback 4.74418 -2.66721 -4.13542
thorax 0 0 0
lowerneck -4.74232 -11.1264 0.479253
upperneck -5.5082 -14.5809 10.3209
head 0 0 0
lclavicle 0 0 0
lhumerus -47.8807 -50.9724 106.272
lradius 59.0134 -0 0
lwrist 18.6103 0 0
lhand 15.2055 10.2003 0.0130012
lfingers 0 0 0
lthumb 0 0 0
rclavicle 0 0 0
rhumerus 0 0 0
rradius 71.4984 -0 0
rwrist 0 0 0
rhand 0 0 0
rfingers 0 0 0
rthumb 0 0 0
314
root 8.80989 15.6005 -23.5699 0 0 0
lfemur -16.1348 21.0048 -16.9847
ltibia 47.3833 -0 0
lfoot 0 0 0
ltoes 0 0 0
rfemur -60.9043 -20.013 28.9463
rtibia 60.7888 -0 0
rfoot 5.28252 8.96132 0.0299285
rtoes 0 0 0
lowerback 9.83307 -1.58319 -6.25929
upperback 4.75247 -2.55914 -4.13894
thorax 0 0 0
lowerneck -4.79431 -11.0951 0.663682
upperneck -5.7392 -14.5287 10.3623
head 0 0 0
lclavicle 0 0 0
lhumerus -48.1182 -51.2672 106.465
lradius 58.9703 -0 0
lwrist 18.583 0 0
lhand 15.0607 10.0529 0.00611656
lfingers 0 0 0
lthumb 0 0 0
rclavicle 0 0 0
rhumerus 0 0 0
rradius 71.3717 -0 0
rwrist 0 0 0
rhand 0 0 0
rfingers 0 0 0
rthumb 0 0 0
315
root 8.77265 15.6216 -23.5098 0 0 0
lfemur -16.1568 21.1626 -16.9304
ltibia 47.2554 -0 0
lfoot 0 0 0
ltoes 0 0 0
rfemur -61.2681 -20.2464 29.0504
rtibia 60.9453 -0 0
rfoot 5.37352 9.40624 0.00783137
rtoes 0 0 0
lowerback 9.88043 -1.53022 -6.235
upperback 4.75767 -2.49124 -4.14115
thorax 0 0 0
lowerneck -4.82691 -11.0753 0.779516
upperneck -5.88426 -14.4959 10.3881
head 0 0 0
lclavicle 0 0 0
lhumerus -48.2691 -51.4521 106.588
lradius 58.9432 -0 0
lwrist 18.5658 0 0
lhand 14.9698 9.96022 0.00160099
lfingers 0 0 0
lthumb 0 0 0
rclavicle 0 0 0
rhumerus 0 0 0
rradius 71.2922 -0 0
rwrist 0 0 0
rhand 0 0 0
rfingers 0 0 0
rthumb 0 0 0
316
root 8.74121 15.64 -23.441 10.9549 48.146 11.2832
lfemur -16.1644 21.2173 -16.9115
ltibia 47.211 0 0
lfoot -21.6068 -17.6456 0
ltoes 56.8514 0 0
rfemur -61.3946 -20.3273 29.0869
rtibia 60.9996 0 0
rfoot 5.40505 9.56059 0
rtoes -15.9475 0 0
lowerback 9.89686 -1.51185 -6.22656
upperback 4.75947 -2.46769 -4.14191
thorax -0.495535 -1.21986 -0.555565
lowerneck -4.83821 -11.0684 0.819699
upperneck -5.93458 -14.4845 10.3971
head -0.30062 -7.30501 2.8986
lclavicle -2.84262e-14 -2.38542e-15 0
lhumerus -48.3217 -51.5162 106.631
lradius 58.9338 0 0
lwrist 18.5599 0 0
lhand 14.9382 9.92808 0
lfingers 7.12502 0 0
lthumb 39.7935 35.2161 0
rclavicle -2.84262e-14 -2.38542e-15 0
rhumerus -5.17715 25.5061 -55.2285
rradius 71.2646 0 0
rwrist -19.4342 0 0
rhand -2.45532 -17.1378 0
rfingers 7.12502 0 0
rthumb 23.2366 -45.756 0
317
root 8.71518 15.6567 -23.3645 0 0 0
lfemur -16.0121 21.181 -16.7812
ltibia 0 0 0
lfoot -20.9789 -16.4097 0.248611
ltoes 0 0 0
rfemur 0 0 0
rtibia 60.8699 -0 0
rfoot 0 0 0
rtoes 0 0 0
lowerback 0 0 0
upperback 4.6804 -2.47772 -4.03756
thorax 0 0 0
lowerneck 0 0 0
upperneck 0 0 0
head -0.28211 -7.27578 2.87182
lclavicle 0 0 0
lhumerus -48.347 -51.1277 106.76
lradius 58.9116 -0 0
lwrist 18.5839 0 0
lhand 14.7394 10.011 -0.00496791
lfingers 0 0 0
lthumb 0 0 0
rclavicle 0 0 0
rhumerus -5.54447 25.4123 -55.5945
rradius 71.6574 -0 0
rwrist 0 0 0
rhand 0 0 0
rfingers 0 0 0
rthumb 0 0 0
318
root 8.69329 15.673 -23.2818 0 0 0
lfemur -15.8162 21.1337 -16.6137
ltibia 0 0 0
lfoot -20.1629 -14.8146 0.548595
ltoes 0 0 0
rfemur 0 0 0
rtibia 60.7029 -0 0
rfoot 0 0 0
rtoes 0 0 0
lowerback 0 0 0
upperback 4.57858 -2.49043 -3.90319
thorax 0 0 0
lowerneck 0 0 0
upperneck 0 0 0
head -0.258302 -7.23813 2.83736
lclavicle 0 0 0
lhumerus -48.3772 -50.6276 106.925
lradius 58.883 -0 0
lwrist 18.6149 0 0
lhand 14.4834 10.1178 -0.0109397
lfingers 0 0 0
lthumb 0 0 0
rclavicle 0 0 0
rhumerus -6.01592 25.2884 -56.0642
rradius 72.163 -0 0
rwrist 0 0 0
rhand 0 0 0
rfingers 0 0 0
rthumb 0 0 0
319
root 8.67503 15.6889 -23.1932 0 0 0
lfemur -15.5822 21.0764 -16.4136
ltibia 0 0 0
lfoot -19.176 -12.9008 0.877443
ltoes 0 0 0
rfemur 0 0 0
rtibia 60.5031 -0 0
rfoot 0 0 0
rtoes 0 0 0
lowerback 0 0 0
upperback 4.45672 -2.50532 -3.74241
thorax 0 0 0
lowerneck 0 0 0
upperneck 0 0 0
head -0.229851 -7.19308 2.79615
lclavicle 0 0 0
lhumerus -48.4099 -50.0291 107.119
lradius 58.8489 -0 0
lwrist 18.6519 0 0
lhand 14.1771 10.2455 -0.0174577
lfingers 0 0 0
lthumb 0 0 0
rclavicle 0 0 0
rhumerus -6.57784 25.1357 -56.624
rradius 72.768 -0 0
rwrist 0 0 0
rhand 0 0 0
rfingers 0 0 0
rthumb 0 0 0
320
root 8.6599 15.7045 -23.0991 0 0 0
lfemur -15.3153 21.0101 -16.1855
ltibia 0 0 0
lfoot -18.0364 -10.7088 1.21231
ltoes 0 0 0
rfemur 0 0 0
rtibia 60.2749 -0 0
rfoot 0 0 0
rtoes 0 0 0
lowerback 0 0 0
upperback 4.31752 -2.5219 -3.55878
thorax 0 0 0
lowerneck 0 0 0
upperneck 0 0 0
head -0.197409 -7.14161 2.74913
lclavicle 0 0 0
lhumerus -48.4431 -49.3457 107.337
lradius 58.8098 -0 0
lwrist 18.6941 0 0
lhand 13.8274 10.3914 -0.0240645
lfingers 0 0 0
lthumb 0 0 0
rclavicle 0 0 0
rhumerus -7.21652 24.9552 -57.2604
rradius 73.4588 -0 0
rwrist 0 0 0
rhand 0 0 0
rfingers 0 0 0
rthumb 0 0 0
321
root 8.64737 15.7198 -22.9999 0 0 0
lfemur -15.0209 20.9357 -15.9341
ltibia 0 0 0
lfoot -16.7636 -8.28005 1.53116
ltoes 0 0 0
rfemur 0 0 0
rtibia 60.0229 -0 0
rfoot 0 0 0
rtoes 0 0 0
lowerback 0 0 0
upperback 4.16371 -2.53969 -3.35591
thorax 0 0 0
lowerneck 0 0 0
upperneck 0 0 0
head -0.161628 -7.08472 2.69724
lclavicle 0 0 0
lhumerus -48.4746 -48.5907 107.574
lradius 58.7667 -0 0
lwrist 18.7408 0 0
lhand 13.441 10.5527 -0.0303269
lfingers 0 0 0
lthumb 0 0 0
rclavicle 0 0 0
rhumerus -7.91828 24.7484 -57.9595
rradius 74.2218 -0 0
rwrist 0 0 0
rhand 0 0 0
rfingers 0 0 0
rthumb 0 0 0
322
root 8.63694 15.7349 -22.8958 0 0 0
lfemur -14.7045 20.8543 -15.6639
ltibia 0 0 0
lfoot -15.3789 -5.65685 1.81381
ltoes 0 0 0
rfemur 0 0 0
rtibia 59.7515 -0 0
rfoot 0 0 0
rtoes 0 0 0
lowerback 0 0 0
upperback 3.998 -2.55825 -3.13737
thorax 0 0 0
lowerneck 0 0 0
upperneck 0 0 0
head -0.123157 -7.02343 2.6414
lclavicle 0 0 0
lhumerus -48.5028 -47.7776 107.824
lradius 58.7203 -0 0
lwrist 18.7911 0 0
lhand 13.025 10.7263 -0.0358551
lfingers 0 0 0
lthumb 0 0 0
rclavicle 0 0 0
rhumerus -8.66952 24.5171 -58.7079
rradius 75.0434 -0 0
rwrist 0 0 0
rhand 0 0 0
rfingers 0 0 0
rthumb 0 0 0
